HIERARCHY
ROOT Hips
{
	OFFSET 0.000000 0.000000 0.000000 
	CHANNELS 6 Xposition Yposition Zposition Zrotation Yrotation Xrotation
	JOINT LeftUpLeg
	{
		OFFSET 1.363060 -1.794630 0.839290 
		CHANNELS 3 Zrotation Yrotation Xrotation
		JOINT LeftLeg
		{
			OFFSET 2.448110 -6.726130 0.000000 
			CHANNELS 3 Zrotation Yrotation Xrotation
			JOINT LeftFoot
			{
				OFFSET 2.562200 -7.039590 0.000000 
				CHANNELS 3 Zrotation Yrotation Xrotation
				JOINT LeftToeBase
				{
					OFFSET 0.157640 -0.433110 2.322550 
					CHANNELS 3 Zrotation Yrotation Xrotation
					End Site
					{
						OFFSET 0.000000 0.000000 0.000000 
					}
				}
			}
		}
	}
	JOINT RightUpLeg
	{
		OFFSET -1.305520 -1.794630 0.839290 
		CHANNELS 3 Zrotation Yrotation Xrotation
		JOINT RightLeg
		{
			OFFSET -2.542530 -6.985550 0.000000 
			CHANNELS 3 Zrotation Yrotation Xrotation
			JOINT RightFoot
			{
				OFFSET -2.568260 -7.056230 0.000000 
				CHANNELS 3 Zrotation Yrotation Xrotation
				JOINT RightToeBase
				{
					OFFSET -0.164730 -0.452590 2.363150 
					CHANNELS 3 Zrotation Yrotation Xrotation
					End Site
					{
						OFFSET 0.000000 0.000000 0.000000 
					}
				}
			}
		}
	}
	JOINT Spine
	{
		OFFSET 0.028270 2.035590 -0.193380 
		CHANNELS 3 Zrotation Yrotation Xrotation
		JOINT Spine1
		{
			OFFSET 0.056720 2.048850 -0.042750 
			CHANNELS 3 Zrotation Yrotation Xrotation
			JOINT Neck1
			{
				OFFSET -0.054170 1.746240 0.172020 
				CHANNELS 3 Zrotation Yrotation Xrotation
				JOINT Head
				{
					OFFSET 0.104070 1.761360 -0.123970 
					CHANNELS 3 Zrotation Yrotation Xrotation
					End Site
					{
						OFFSET 0.000000 0.000000 0.000000 
					}
				}
			}
			JOINT LeftArm
			{
				OFFSET 3.362410 1.200890 -0.311210 
				CHANNELS 3 Zrotation Yrotation Xrotation
				JOINT LeftForeArm
				{
					OFFSET 4.983000 -0.000000 -0.000000 
					CHANNELS 3 Zrotation Yrotation Xrotation
					JOINT LeftHand
					{
						OFFSET 3.483560 -0.000000 -0.000000 
						CHANNELS 3 Zrotation Yrotation Xrotation
						JOINT LeftHandIndex1
						{
							OFFSET 0.715260 -0.000000 -0.000000 
							CHANNELS 3 Zrotation Yrotation Xrotation
							End Site
							{
								OFFSET 0.000000 0.000000 0.000000 
							}
						}
					}
				}
			}
			JOINT RightArm
			{
				OFFSET -3.136600 1.374050 -0.404650 
				CHANNELS 3 Zrotation Yrotation Xrotation
				JOINT RightForeArm
				{
					OFFSET -5.241900 -0.000000 -0.000000 
					CHANNELS 3 Zrotation Yrotation Xrotation
					JOINT RightHand
					{
						OFFSET -3.444170 -0.000000 -0.000000 
						CHANNELS 3 Zrotation Yrotation Xrotation
						JOINT RightHandIndex1
						{
							OFFSET -0.622530 -0.000000 -0.000000 
							CHANNELS 3 Zrotation Yrotation Xrotation
							End Site
							{
								OFFSET 0.000000 0.000000 0.000000 
							}
						}
					}
				}
			}
		}
	}
}
MOTION
Frames: 9
Frame Time: 0.041667
-0.017387 18.189237 4.066931 0.637774 -6.095637 -0.603415 -12.754008 -9.942651 1.427174 -1.272661 1.310624 7.363270 -4.571546 17.997220 -6.408525 0.029900 -1.116200 -3.068500 1.904578 4.178171 -8.030035 0.558518 0.911946 0.433562 0.339774 -4.494387 15.258166 0.000000 0.000000 0.000000 -7.271286 0.553649 11.976545 2.509839 0.759544 -8.734949 8.701831 -11.965755 20.838470 2.824300 -5.608500 6.854200 -79.089160 4.458337 9.772703 11.282138 -17.333204 -1.716850 -0.791873 -0.967431 10.057580 -7.125000 0.000000 0.000000 69.308439 9.902608 27.255637 -74.955768 56.880567 -53.868592 -0.125723 2.384269 -11.714208 7.125000 0.000000 0.000000 
-0.017290 18.187015 4.066061 0.654419 -6.029645 -0.611705 -12.763319 -10.005464 1.456725 -1.273488 1.308490 7.350760 -4.583459 18.034391 -6.347199 0.032700 -1.167400 -3.209400 1.904910 4.177970 -8.030567 0.558510 0.911582 0.433427 0.339597 -4.494749 15.258027 0.000000 0.000000 0.000000 -7.270275 0.525170 11.955223 2.523533 0.747035 -8.758908 8.718613 -11.901711 20.922833 2.833000 -5.573500 6.873100 -79.077583 4.486782 9.846558 11.288542 -17.344634 -1.719472 -0.790410 -0.965455 9.944765 -7.125000 0.000000 0.000000 69.291587 9.807365 27.218384 -75.293679 56.975420 -54.185526 -0.137132 2.388339 -11.751857 7.125000 0.000000 0.000000 
-0.018159 18.187885 4.060266 0.650046 -5.978834 -0.624993 -12.745864 -10.076471 1.413346 -1.265300 1.351432 7.466816 -4.566463 17.973391 -6.374699 0.029500 -1.108700 -3.048000 1.904697 4.178396 -8.029565 0.558427 0.912306 0.433695 0.339686 -4.494076 15.258378 0.000000 0.000000 0.000000 -7.218572 0.505264 11.957695 2.524141 0.740640 -8.814971 8.803736 -11.852629 21.014219 2.860400 -5.541300 6.899100 -79.082407 4.473296 9.856376 11.276805 -17.328942 -1.715710 -0.793615 -0.958710 9.958635 -7.125000 0.000000 0.000000 69.279619 9.749507 27.142576 -75.593373 57.060587 -54.464950 -0.147395 2.392184 -11.827392 7.125000 0.000000 0.000000 
-0.019222 18.189817 4.053021 0.660732 -5.967955 -0.639288 -12.742600 -10.105506 1.376041 -1.259424 1.384603 7.564913 -4.523869 17.831937 -6.461320 0.021200 -0.939600 -2.582600 1.905014 4.178588 -8.029409 0.558318 0.912483 0.433781 0.339577 -4.493937 15.258517 0.000000 0.000000 0.000000 -7.147510 0.500550 11.932390 2.535591 0.746232 -8.906937 8.914236 -11.796556 21.182727 2.896300 -5.503200 6.946500 -79.107802 4.489517 9.886363 11.291672 -17.355700 -1.720678 -0.793640 -0.958427 9.924774 -7.125000 0.000000 0.000000 69.268022 9.693290 27.046979 -75.840603 57.132326 -54.686549 -0.146300 2.389589 -11.929823 7.125000 0.000000 0.000000 
-0.019415 18.188947 4.051379 0.684834 -5.964962 -0.652517 -12.772322 -10.125967 1.313828 -1.247473 1.438132 7.726952 -4.491233 17.722257 -6.561396 0.017700 -0.860100 -2.364000 1.904239 4.179193 -8.027466 0.558271 0.913762 0.434181 0.339892 -4.492743 15.259089 0.000000 0.000000 0.000000 -7.115644 0.519319 12.005132 2.542144 0.757835 -8.923088 8.993831 -11.743615 21.340304 2.920600 -5.467700 6.999200 -79.126594 4.455747 9.972644 11.318750 -17.399021 -1.730251 -0.791947 -0.960377 9.829407 -7.125000 0.000000 0.000000 69.265805 9.691869 26.927844 -76.045373 57.185256 -54.851082 -0.135913 2.378593 -11.948239 7.125000 0.000000 0.000000 
-0.020574 18.188078 4.049544 0.629705 -5.979303 -0.656559 -12.725978 -10.147690 1.182961 -1.228421 1.522459 7.955154 -4.489133 17.708077 -6.605819 0.020800 -0.931200 -2.559600 1.903531 4.180101 -8.025419 0.558151 0.915280 0.434761 0.340171 -4.491301 15.259770 0.000000 0.000000 0.000000 -7.035038 0.535956 12.019718 2.519094 0.768479 -8.964414 8.890855 -11.702927 21.537254 2.888900 -5.449800 7.048100 -79.123550 4.440639 10.011765 11.328058 -17.415854 -1.733375 -0.791944 -0.963305 9.830585 -7.125000 0.000000 0.000000 69.251655 9.668143 26.871687 -76.205242 57.230085 -54.991041 -0.138474 2.376704 -11.953548 7.125000 0.000000 0.000000 
-0.022216 18.188368 4.044135 0.511073 -5.997405 -0.640157 -12.608582 -10.178452 1.031750 -1.210477 1.609657 8.179463 -4.474832 17.654742 -6.678191 0.022800 -0.975300 -2.681000 1.903936 4.180769 -8.025065 0.557927 0.915855 0.435131 0.339992 -4.490753 15.260087 0.000000 0.000000 0.000000 -6.886427 0.526518 11.900375 2.478248 0.769561 -9.057595 8.686761 -11.663139 21.713385 2.833200 -5.442600 7.070400 -79.104661 4.501672 10.032653 11.329236 -17.421317 -1.733523 -0.790380 -0.969036 9.851936 -7.125000 0.000000 0.000000 69.213131 9.579811 26.883274 -76.388364 57.286117 -55.166880 -0.155223 2.382919 -12.092221 7.125000 0.000000 0.000000 
-0.024341 18.188561 4.037760 0.373589 -5.981545 -0.629503 -12.459464 -10.232336 0.930303 -1.199323 1.667579 8.320313 -4.466195 17.617062 -6.706759 0.024100 -1.001500 -2.752900 1.904156 4.181486 -8.023504 0.557674 0.916939 0.435540 0.340175 -4.489784 15.260734 0.000000 0.000000 0.000000 -6.716714 0.511224 11.909325 2.420402 0.762479 -9.105144 8.614028 -11.634175 21.782897 2.815100 -5.432600 7.080100 -79.083333 4.505342 10.089715 11.343700 -17.447306 -1.738783 -0.787862 -0.974940 9.797875 -7.125000 0.000000 0.000000 69.188001 9.576195 26.854756 -76.610619 57.345349 -55.361537 -0.169521 2.383027 -12.294323 7.125000 0.000000 0.000000 
-0.025114 18.188464 4.036794 0.357051 -5.943511 -0.629501 -12.438976 -10.280274 0.897007 -1.192618 1.695318 8.396088 -4.467208 17.613220 -6.685251 0.025900 -1.039900 -2.858600 1.903287 4.182025 -8.021277 0.557645 0.918279 0.435915 0.340652 -4.488544 15.261359 0.000000 0.000000 0.000000 -6.700417 0.499908 12.024010 2.414197 0.754326 -9.081078 8.577983 -11.601008 21.915389 2.799400 -5.413500 7.124300 -79.058920 4.485210 10.186533 11.375479 -17.498935 -1.750110 -0.783558 -0.984557 9.667944 -7.125000 0.000000 0.000000 69.182922 9.661643 26.795827 -76.787757 57.388156 -55.518849 -0.181020 2.384844 -12.507557 7.125000 0.000000 0.000000 
